<svg id="visual" viewBox="0 0 900 600" width="900" height="600" xmlns="http://www.w3.org/2000/svg" xmlns:xlink="http://www.w3.org/1999/xlink" version="1.1"><rect x="0" y="0" width="900" height="600" fill="#f7f2e4"></rect><path d="M0 109L10 105.2C20 101.3 40 93.7 60 92.8C80 92 100 98 120 98.2C140 98.3 160 92.7 180 90.5C200 88.3 220 89.7 240 90C260 90.3 280 89.7 300 93C320 96.3 340 103.7 360 100.8C380 98 400 85 420 82.7C440 80.3 460 88.7 480 90.7C500 92.7 520 88.3 540 89C560 89.7 580 95.3 600 98C620 100.7 640 100.3 660 101.8C680 103.3 700 106.7 720 103C740 99.3 760 88.7 780 85.2C800 81.7 820 85.3 840 88.5C860 91.7 880 94.3 890 95.7L900 97L900 0L890 0C880 0 860 0 840 0C820 0 800 0 780 0C760 0 740 0 720 0C700 0 680 0 660 0C640 0 620 0 600 0C580 0 560 0 540 0C520 0 500 0 480 0C460 0 440 0 420 0C400 0 380 0 360 0C340 0 320 0 300 0C280 0 260 0 240 0C220 0 200 0 180 0C160 0 140 0 120 0C100 0 80 0 60 0C40 0 20 0 10 0L0 0Z" fill="#f7f2e4"></path><path d="M0 60L10 60.7C20 61.3 40 62.7 60 64.2C80 65.7 100 67.3 120 68.3C140 69.3 160 69.7 180 68C200 66.3 220 62.7 240 63.8C260 65 280 71 300 76C320 81 340 85 360 85.7C380 86.3 400 83.7 420 81C440 78.3 460 75.7 480 72C500 68.3 520 63.7 540 66.7C560 69.7 580 80.3 600 80.8C620 81.3 640 71.7 660 66C680 60.3 700 58.7 720 58.3C740 58 760 59 780 62.2C800 65.3 820 70.7 840 72.7C860 74.7 880 73.3 890 72.7L900 72L900 0L890 0C880 0 860 0 840 0C820 0 800 0 780 0C760 0 740 0 720 0C700 0 680 0 660 0C640 0 620 0 600 0C580 0 560 0 540 0C520 0 500 0 480 0C460 0 440 0 420 0C400 0 380 0 360 0C340 0 320 0 300 0C280 0 260 0 240 0C220 0 200 0 180 0C160 0 140 0 120 0C100 0 80 0 60 0C40 0 20 0 10 0L0 0Z" fill="#e9c9a8"></path><path d="M0 48L10 50.8C20 53.7 40 59.3 60 61.5C80 63.7 100 62.3 120 59.7C140 57 160 53 180 53.3C200 53.7 220 58.3 240 60C260 61.7 280 60.3 300 56.3C320 52.3 340 45.7 360 44.3C380 43 400 47 420 50.5C440 54 460 57 480 57.7C500 58.3 520 56.7 540 56.3C560 56 580 57 600 58.5C620 60 640 62 660 63.7C680 65.3 700 66.7 720 65.5C740 64.3 760 60.7 780 56.5C800 52.3 820 47.7 840 46C860 44.3 880 45.7 890 46.3L900 47L900 0L890 0C880 0 860 0 840 0C820 0 800 0 780 0C760 0 740 0 720 0C700 0 680 0 660 0C640 0 620 0 600 0C580 0 560 0 540 0C520 0 500 0 480 0C460 0 440 0 420 0C400 0 380 0 360 0C340 0 320 0 300 0C280 0 260 0 240 0C220 0 200 0 180 0C160 0 140 0 120 0C100 0 80 0 60 0C40 0 20 0 10 0L0 0Z" fill="#e39a7b"></path><path d="M0 33L10 31.5C20 30 40 27 60 27.5C80 28 100 32 120 36.2C140 40.3 160 44.7 180 43.3C200 42 220 35 240 32C260 29 280 30 300 30.8C320 31.7 340 32.3 360 31.2C380 30 400 27 420 29.5C440 32 460 40 480 43C500 46 520 44 540 40.8C560 37.7 580 33.3 600 30.8C620 28.3 640 27.7 660 28C680 28.3 700 29.7 720 33.8C740 38 760 45 780 45.5C800 46 820 40 840 38.7C860 37.3 880 40.7 890 42.3L900 44L900 0L890 0C880 0 860 0 840 0C820 0 800 0 780 0C760 0 740 0 720 0C700 0 680 0 660 0C640 0 620 0 600 0C580 0 560 0 540 0C520 0 500 0 480 0C460 0 440 0 420 0C400 0 380 0 360 0C340 0 320 0 300 0C280 0 260 0 240 0C220 0 200 0 180 0C160 0 140 0 120 0C100 0 80 0 60 0C40 0 20 0 10 0L0 0Z" fill="#da6566"></path><path d="M0 9L10 10.5C20 12 40 15 60 15.3C80 15.7 100 13.3 120 15.3C140 17.3 160 23.7 180 27C200 30.3 220 30.7 240 31C260 31.3 280 31.7 300 29.5C320 27.3 340 22.7 360 21.7C380 20.7 400 23.3 420 25.5C440 27.7 460 29.3 480 29.3C500 29.3 520 27.7 540 23.8C560 20 580 14 600 14.7C620 15.3 640 22.7 660 23.7C680 24.7 700 19.3 720 17.5C740 15.7 760 17.3 780 19C800 20.7 820 22.3 840 22.5C860 22.7 880 21.3 890 20.7L900 20L900 0L890 0C880 0 860 0 840 0C820 0 800 0 780 0C760 0 740 0 720 0C700 0 680 0 660 0C640 0 620 0 600 0C580 0 560 0 540 0C520 0 500 0 480 0C460 0 440 0 420 0C400 0 380 0 360 0C340 0 320 0 300 0C280 0 260 0 240 0C220 0 200 0 180 0C160 0 140 0 120 0C100 0 80 0 60 0C40 0 20 0 10 0L0 0Z" fill="#c62368"></path></svg>