<svg id="visual" viewBox="0 0 900 600" width="900" height="600" xmlns="http://www.w3.org/2000/svg" xmlns:xlink="http://www.w3.org/1999/xlink" version="1.1"><rect x="0" y="0" width="900" height="600" fill="#f7f2e4"></rect><path d="M0 486L9.3 477.8C18.7 469.7 37.3 453.3 56.2 452.2C75 451 94 465 112.8 475.5C131.7 486 150.3 493 169 495.8C187.7 498.7 206.3 497.3 225 488.8C243.7 480.3 262.3 464.7 281.2 457.8C300 451 319 453 337.8 462.2C356.7 471.3 375.3 487.7 394 486.5C412.7 485.3 431.3 466.7 450 455C468.7 443.3 487.3 438.7 506.2 438C525 437.3 544 440.7 562.8 439C581.7 437.3 600.3 430.7 619 432.7C637.7 434.7 656.3 445.3 675 458.2C693.7 471 712.3 486 731.2 491C750 496 769 491 787.8 491.2C806.7 491.3 825.3 496.7 844 495.3C862.7 494 881.3 486 890.7 482L900 478L900 601L890.7 601C881.3 601 862.7 601 844 601C825.3 601 806.7 601 787.8 601C769 601 750 601 731.2 601C712.3 601 693.7 601 675 601C656.3 601 637.7 601 619 601C600.3 601 581.7 601 562.8 601C544 601 525 601 506.2 601C487.3 601 468.7 601 450 601C431.3 601 412.7 601 394 601C375.3 601 356.7 601 337.8 601C319 601 300 601 281.2 601C262.3 601 243.7 601 225 601C206.3 601 187.7 601 169 601C150.3 601 131.7 601 112.8 601C94 601 75 601 56.2 601C37.3 601 18.7 601 9.3 601L0 601Z" fill="#ffcc41"></path><path d="M0 489L9.3 495.7C18.7 502.3 37.3 515.7 56.2 523.5C75 531.3 94 533.7 112.8 531C131.7 528.3 150.3 520.7 169 512.8C187.7 505 206.3 497 225 500.8C243.7 504.7 262.3 520.3 281.2 521.3C300 522.3 319 508.7 337.8 503.3C356.7 498 375.3 501 394 497.3C412.7 493.7 431.3 483.3 450 489C468.7 494.7 487.3 516.3 506.2 520.8C525 525.3 544 512.7 562.8 504.2C581.7 495.7 600.3 491.3 619 490.2C637.7 489 656.3 491 675 490.8C693.7 490.7 712.3 488.3 731.2 491.8C750 495.3 769 504.7 787.8 504.2C806.7 503.7 825.3 493.3 844 494.5C862.7 495.7 881.3 508.3 890.7 514.7L900 521L900 601L890.7 601C881.3 601 862.7 601 844 601C825.3 601 806.7 601 787.8 601C769 601 750 601 731.2 601C712.3 601 693.7 601 675 601C656.3 601 637.7 601 619 601C600.3 601 581.7 601 562.8 601C544 601 525 601 506.2 601C487.3 601 468.7 601 450 601C431.3 601 412.7 601 394 601C375.3 601 356.7 601 337.8 601C319 601 300 601 281.2 601C262.3 601 243.7 601 225 601C206.3 601 187.7 601 169 601C150.3 601 131.7 601 112.8 601C94 601 75 601 56.2 601C37.3 601 18.7 601 9.3 601L0 601Z" fill="#fb7349"></path><path d="M0 544L9.3 549.5C18.7 555 37.3 566 56.2 573.8C75 581.7 94 586.3 112.8 584.8C131.7 583.3 150.3 575.7 169 568.7C187.7 561.7 206.3 555.3 225 546.5C243.7 537.7 262.3 526.3 281.2 526.7C300 527 319 539 337.8 539.8C356.7 540.7 375.3 530.3 394 530.7C412.7 531 431.3 542 450 545.3C468.7 548.7 487.3 544.3 506.2 547.2C525 550 544 560 562.8 558C581.7 556 600.3 542 619 545.2C637.7 548.3 656.3 568.7 675 574.5C693.7 580.3 712.3 571.7 731.2 564C750 556.3 769 549.7 787.8 547.3C806.7 545 825.3 547 844 550.7C862.7 554.3 881.3 559.7 890.7 562.3L900 565L900 601L890.7 601C881.3 601 862.7 601 844 601C825.3 601 806.7 601 787.8 601C769 601 750 601 731.2 601C712.3 601 693.7 601 675 601C656.3 601 637.7 601 619 601C600.3 601 581.7 601 562.8 601C544 601 525 601 506.2 601C487.3 601 468.7 601 450 601C431.3 601 412.7 601 394 601C375.3 601 356.7 601 337.8 601C319 601 300 601 281.2 601C262.3 601 243.7 601 225 601C206.3 601 187.7 601 169 601C150.3 601 131.7 601 112.8 601C94 601 75 601 56.2 601C37.3 601 18.7 601 9.3 601L0 601Z" fill="#c62368"></path></svg>