<svg id="visual" viewBox="0 0 900 600" width="900" height="600" xmlns="http://www.w3.org/2000/svg" xmlns:xlink="http://www.w3.org/1999/xlink" version="1.1"><rect x="0" y="0" width="900" height="600" fill="#f7f2e4"></rect><path d="M0 482L9.3 472.7C18.7 463.3 37.3 444.7 56.2 435.3C75 426 94 426 112.8 437.3C131.7 448.7 150.3 471.3 169 471.5C187.7 471.7 206.3 449.3 225 450C243.7 450.7 262.3 474.3 281.2 484.2C300 494 319 490 337.8 478.5C356.7 467 375.3 448 394 438C412.7 428 431.3 427 450 427.7C468.7 428.3 487.3 430.7 506.2 433.2C525 435.7 544 438.3 562.8 437.2C581.7 436 600.3 431 619 440.5C637.7 450 656.3 474 675 479C693.7 484 712.3 470 731.2 469.7C750 469.3 769 482.7 787.8 489.8C806.7 497 825.3 498 844 490.5C862.7 483 881.3 467 890.7 459L900 451L900 601L890.7 601C881.3 601 862.7 601 844 601C825.3 601 806.7 601 787.8 601C769 601 750 601 731.2 601C712.3 601 693.7 601 675 601C656.3 601 637.7 601 619 601C600.3 601 581.7 601 562.8 601C544 601 525 601 506.2 601C487.3 601 468.7 601 450 601C431.3 601 412.7 601 394 601C375.3 601 356.7 601 337.8 601C319 601 300 601 281.2 601C262.3 601 243.7 601 225 601C206.3 601 187.7 601 169 601C150.3 601 131.7 601 112.8 601C94 601 75 601 56.2 601C37.3 601 18.7 601 9.3 601L0 601Z" fill="#ffcc41"></path><path d="M0 530L9.3 521.2C18.7 512.3 37.3 494.7 56.2 485.2C75 475.7 94 474.3 112.8 474C131.7 473.7 150.3 474.3 169 478.5C187.7 482.7 206.3 490.3 225 501.3C243.7 512.3 262.3 526.7 281.2 524.8C300 523 319 505 337.8 505.8C356.7 506.7 375.3 526.3 394 533.7C412.7 541 431.3 536 450 530.8C468.7 525.7 487.3 520.3 506.2 517C525 513.7 544 512.3 562.8 512.3C581.7 512.3 600.3 513.7 619 512.8C637.7 512 656.3 509 675 507.5C693.7 506 712.3 506 731.2 509.8C750 513.7 769 521.3 787.8 521.8C806.7 522.3 825.3 515.7 844 507.2C862.7 498.7 881.3 488.3 890.7 483.2L900 478L900 601L890.7 601C881.3 601 862.7 601 844 601C825.3 601 806.7 601 787.8 601C769 601 750 601 731.2 601C712.3 601 693.7 601 675 601C656.3 601 637.7 601 619 601C600.3 601 581.7 601 562.8 601C544 601 525 601 506.2 601C487.3 601 468.7 601 450 601C431.3 601 412.7 601 394 601C375.3 601 356.7 601 337.8 601C319 601 300 601 281.2 601C262.3 601 243.7 601 225 601C206.3 601 187.7 601 169 601C150.3 601 131.7 601 112.8 601C94 601 75 601 56.2 601C37.3 601 18.7 601 9.3 601L0 601Z" fill="#fb7349"></path><path d="M0 558L9.3 557.7C18.7 557.3 37.3 556.7 56.2 550.8C75 545 94 534 112.8 536.2C131.7 538.3 150.3 553.7 169 561C187.7 568.3 206.3 567.7 225 566.8C243.7 566 262.3 565 281.2 558.8C300 552.7 319 541.3 337.8 543.3C356.7 545.3 375.3 560.7 394 569.2C412.7 577.7 431.3 579.3 450 579.2C468.7 579 487.3 577 506.2 579C525 581 544 587 562.8 586.8C581.7 586.7 600.3 580.3 619 572.7C637.7 565 656.3 556 675 555.7C693.7 555.3 712.3 563.7 731.2 558.8C750 554 769 536 787.8 537.8C806.7 539.7 825.3 561.3 844 566.3C862.7 571.3 881.3 559.7 890.7 553.8L900 548L900 601L890.7 601C881.3 601 862.7 601 844 601C825.3 601 806.7 601 787.8 601C769 601 750 601 731.2 601C712.3 601 693.7 601 675 601C656.3 601 637.7 601 619 601C600.3 601 581.7 601 562.8 601C544 601 525 601 506.2 601C487.3 601 468.7 601 450 601C431.3 601 412.7 601 394 601C375.3 601 356.7 601 337.8 601C319 601 300 601 281.2 601C262.3 601 243.7 601 225 601C206.3 601 187.7 601 169 601C150.3 601 131.7 601 112.8 601C94 601 75 601 56.2 601C37.3 601 18.7 601 9.3 601L0 601Z" fill="#c62368"></path></svg>